<?xml version="1.0" encoding="utf-8"?>
<!-- Generator: Adobe Illustrator 19.1.0, SVG Export Plug-In . SVG Version: 6.00 Build 0)  -->
<svg version="1.1" xmlns="http://www.w3.org/2000/svg" xmlns:xlink="http://www.w3.org/1999/xlink" x="0px" y="0px"
	 viewBox="0 0 100 100" style="enable-background:new 0 0 100 100;" xml:space="preserve">
<style type="text/css">
	.st0{fill:none;stroke:#000000;stroke-miterlimit:10;}
	.st1{fill:#FFFFFF;stroke:#000000;stroke-miterlimit:10;}
</style>
<g id="Layer_1">
	<path class="st0" d="M88,100.3H12c-6.6,0-12-5.4-12-12v-76c0-6.6,5.4-12,12-12h76c6.6,0,12,5.4,12,12v76
		C100,94.9,94.6,100.3,88,100.3z"/>
	<path d="M65,17c-2.7-2.8-7.8-4.8-13.4-4.8c-5.9,0-12.2,2.3-16.6,8.4c-8.4,11.9,0,24.1,0,24.1C42.4,56.6,42.3,67,42.3,67v11l1.6,1.1
		c0,2.4,2,2.6,2,2.6l2.2,2.2h6.1l1.7-1.9c2-0.3,2.5-2.8,2.5-2.8l1.9-1.6V67.3c0.3-6.2,1.7-12,8.2-22.5C74.9,34.2,70.6,22.8,65,17z
		 M43.6,66h15.3c0,0.1,0,0.2,0,0.3l-15.3,2.9V67C43.6,66.9,43.6,66.6,43.6,66z M50.9,38.4c1,1.2,2.7,2.5,5.5,3.2
		c0.5,0.1,1,0.2,1.4,0.3c-0.3,0.7-0.6,1.5-0.9,2.3C55.6,48,53.8,54.6,53,64.7h-3.3c-0.4-2.9-2.2-15-4.2-22.4
		c0.7-0.3,1.6-0.7,2.5-1.4C49.1,40.1,50.1,39.3,50.9,38.4z M49.8,32.3c0.2-1.3,0.9-2.1,1.7-2.1c0,0,0.1,0,0.1,0
		c0.7,0,1.3,0.6,1.5,1.4c0.4,1.3-0.1,3.3-2,5.6c0,0-0.1-0.1-0.1-0.1C49.9,35.6,49.5,33.9,49.8,32.3z M43.6,70.6l15.2-2.9v1.8
		l-15.2,2.9V70.6z M43.6,73.8l15.2-2.9v1.6l-15.2,2.9V73.8z M53.5,82.4h-4.9l-0.9-0.9h6.6L53.5,82.4z M56.3,80.2H45.9
		c-0.1,0-0.2-0.1-0.3-0.2c-0.1-0.1-0.4-0.3-0.4-1v-0.4H57l0,0.2C57,78.8,56.8,79.7,56.3,80.2z M58.2,77.3H43.7l-0.1-0.1v-0.5
		l15.2-2.9v2.9L58.2,77.3z M59,64.7h-5.2c0.8-10,2.5-16.5,3.8-20.2c0.3-0.9,0.6-1.7,1-2.4c2.7,0.3,4-0.4,4.7-1.1
		c0.8-0.9,0.7-2.1,0.4-2.9c-0.3-0.8-0.9-1.2-1.5-1.3c-1.2-0.1-2.6,1.6-3.9,4.4c-0.5-0.1-1-0.2-1.5-0.3c-2.6-0.6-4.2-1.9-5.1-3
		c0.6-0.7,1.2-1.5,1.6-2.2c0.8-1.5,1.1-3,0.8-4.3c-0.3-1.1-1.2-1.9-2.2-1.9c-1.3-0.1-2.3,1-2.6,2.8c-0.3,1.7,0.2,3.7,1.3,5.3
		c0.1,0.1,0.1,0.2,0.2,0.3c-0.8,0.8-1.7,1.6-2.9,2.5c-0.8,0.6-1.6,1-2.3,1.3c-0.4-1.4-0.9-2.7-1.3-3.6c-0.6-1.2-1.2-1.7-1.8-1.6
		c-0.6,0.1-1,0.6-1.2,1.5c-0.4,1.4,0,3.5,1.3,4.3c0.5,0.4,1.4,0.6,2.6,0.4c2,7.2,3.8,19.1,4.2,22.2h-5.5c-0.1-1.2-0.3-2.8-0.7-4.7
		c-0.8-3.8-2.6-9.7-6.5-16l0,0l0,0c0,0-2-2.9-2.9-7.2c-0.6-2.5-0.7-4.9-0.4-7.3c0.4-2.9,1.5-5.7,3.3-8.2c1.9-2.7,4.3-4.7,7.2-6.1
		c2.5-1.2,5.3-1.8,8.3-1.8h0c2.5,0,5,0.4,7.3,1.3c2.1,0.8,3.9,1.9,5.1,3.1c2.9,3,5.1,7.2,5.9,11.4c0.5,2.4,0.5,4.9,0.2,7.2
		c-0.4,2.6-1.4,5.1-2.8,7.5C61.5,53.4,59.6,59.2,59,64.7z M58.9,41.3c1.3-2.6,2.4-3.8,3.1-3.8c0.3,0,0.7,0.3,0.9,0.8
		c0.2,0.6,0.3,1.4-0.2,2C62.3,40.9,61.3,41.5,58.9,41.3z M44.5,41.8c-0.8,0.2-1.4,0.1-1.9-0.3c-1-0.7-1.3-2.3-1-3.5
		c0.1-0.6,0.4-0.9,0.6-0.9c0,0,0,0,0,0c0.2,0,0.6,0.3,1.1,1.2C43.7,39.2,44.1,40.4,44.5,41.8z"/>
</g>
<g id="Layer_2">
</g>
</svg>
