<?xml version="1.0" encoding="utf-8"?>
<!-- Generator: Adobe Illustrator 19.1.0, SVG Export Plug-In . SVG Version: 6.00 Build 0)  -->
<svg version="1.1" id="Layer_1" xmlns="http://www.w3.org/2000/svg" xmlns:xlink="http://www.w3.org/1999/xlink" x="0px" y="0px"
	 viewBox="-274 200.5 90 56" style="enable-background:new -274 200.5 90 56;" xml:space="preserve">
<path d="M-224.7,247.5l25.7-29.1l-29.1,25.7c-1.5-0.3-3.1,0.1-4.2,1.2c-1.8,1.8-1.8,4.6,0,6.4c1.8,1.8,4.6,1.8,6.4,0
	C-224.7,250.6-224.3,249-224.7,247.5z"/>
<path d="M-196.2,221.4l-4.7,5.3c4.7,6,7.5,13.6,7.5,21.7h7C-186.5,238.2-190.2,228.8-196.2,221.4z"/>
<path d="M-207.3,220.4l5.3-4.7c-7.4-6.1-16.8-9.7-27.1-9.7c-23.5,0-42.5,19-42.5,42.5h7c0-19.6,15.9-35.5,35.5-35.5
	C-220.8,213-213.3,215.8-207.3,220.4z"/>
</svg>
